<?xml version="1.0" encoding="iso-8859-1"?>
<!-- Uploaded to: SVG Repo, www.svgrepo.com, Generator: SVG Repo Mixer Tools -->
<svg height="800px" width="800px" version="1.1" id="Layer_1" xmlns="http://www.w3.org/2000/svg" xmlns:xlink="http://www.w3.org/1999/xlink" 
	 viewBox="0 0 392.663 392.663" xml:space="preserve">
<g>
	<polygon style="fill:#FFC10D;" points="370.812,37.236 263.176,144.808 370.812,252.444 	"/>
	<polyline style="fill:#FFC10D;" points="21.851,252.444 129.487,144.808 21.851,37.236 	"/>
	<path style="fill:#FFC10D;" d="M247.79,160.259l-43.701,43.766c-4.396,4.202-10.731,4.396-15.451,0l-43.766-43.766L37.301,267.83
		h318.061L247.79,160.259z"/>
</g>
<path style="fill:#FFFFFF;" d="M196.331,351.354c-5.301,0-9.632,4.331-9.632,9.632s4.331,9.632,9.632,9.632s9.632-4.331,9.632-9.632
	C205.964,355.685,201.632,351.354,196.331,351.354z"/>
<polygon style="fill:#56ACE0;" points="355.362,21.786 37.301,21.786 196.331,180.816 "/>
<path style="fill:#194F82;" d="M361.051,289.616c17.39,0,31.547-14.158,31.547-31.547V31.547C392.598,14.158,378.44,0,361.051,0
	H31.612C14.222,0,0.065,14.158,0.065,31.547v226.65c0,17.39,14.158,31.547,31.547,31.547h153.859v41.826
	c-8.598,3.168-15.451,10.02-18.618,18.618H10.925C4.913,350.19,0,355.038,0,361.115c0,6.012,4.848,10.925,10.925,10.925h155.863
	c4.461,11.96,15.968,20.622,29.543,20.622s25.018-8.598,29.543-20.622h155.863c6.012,0,10.925-4.848,10.925-10.925
	c0-6.012-4.848-10.925-10.925-10.925H225.875c-3.168-8.598-10.02-15.451-18.618-18.618v-41.891h153.794V289.616z M196.331,370.747
	c-5.301,0-9.632-4.331-9.632-9.632c0-5.301,4.331-9.632,9.632-9.632s9.632,4.331,9.632,9.632
	C205.964,366.416,201.632,370.747,196.331,370.747z M37.301,21.786h318.125l-159.095,159.03L37.301,21.786z M370.812,37.236v215.208
	L263.176,144.808L370.812,37.236z M21.851,174.093h16.937c6.012,0,10.925-4.848,10.925-10.925c0-6.012-4.848-10.925-10.925-10.925
	H21.851v-14.933h35.297c6.012,0,10.925-4.848,10.925-10.925c0-6.012-4.848-10.925-10.925-10.925H21.851V37.236l107.572,107.572
	L21.851,252.444V174.093z M144.873,160.259l43.701,43.766c4.655,4.396,11.055,4.202,15.451,0l43.766-43.766L355.362,267.83H37.301
	L144.873,160.259z"/>
</svg>