<?xml version="1.0" encoding="UTF-8" standalone="no"?>
<!-- Created with Inkscape (http://www.inkscape.org/) -->

<svg
   version="1.1"
   id="svg3561"
   width="880"
   height="880"
   viewBox="0 0 880 880"
   sodipodi:docname="military-jet-publicdomainvectors.org.svg"
   inkscape:version="1.2 (dc2aedaf03, 2022-05-15)"
   xmlns:inkscape="http://www.inkscape.org/namespaces/inkscape"
   xmlns:sodipodi="http://sodipodi.sourceforge.net/DTD/sodipodi-0.dtd"
   xmlns="http://www.w3.org/2000/svg"
   xmlns:svg="http://www.w3.org/2000/svg">
  <defs
     id="defs3565">
    <clipPath
       clipPathUnits="userSpaceOnUse"
       id="clipPath3577">
      <path
         d="M 0,660 H 660 V 0 H 0 Z"
         id="path3575" />
    </clipPath>
  </defs>
  <sodipodi:namedview
     id="namedview3563"
     pagecolor="#ffffff"
     bordercolor="#000000"
     borderopacity="0.25"
     inkscape:showpageshadow="2"
     inkscape:pageopacity="0.0"
     inkscape:pagecheckerboard="0"
     inkscape:deskcolor="#d1d1d1"
     showgrid="false"
     inkscape:zoom="0.95113636"
     inkscape:cx="441.05137"
     inkscape:cy="440.52569"
     inkscape:window-width="1920"
     inkscape:window-height="1017"
     inkscape:window-x="-8"
     inkscape:window-y="-8"
     inkscape:window-maximized="1"
     inkscape:current-layer="g3569">
    <inkscape:page
       x="0"
       y="0"
       id="page3567"
       width="880"
       height="880" />
  </sodipodi:namedview>
  <g
     id="g3569"
     inkscape:groupmode="layer"
     inkscape:label="Page 1"
     transform="matrix(1.3333333,0,0,-1.3333333,0,880)">
    <g
       id="g3571">
      <g
         id="g3573"
         clip-path="url(#clipPath3577)">
        <g
           id="g3579"
           transform="translate(331.4639,139.7969)">
          <path
             d="m 0,0 c 119.776,0 217.469,97.69 217.469,217.469 0,119.777 -97.693,217.47 -217.469,217.47 -119.777,0 -217.469,-97.693 -217.469,-217.47 C -217.469,97.69 -119.776,0 0,0"
             style="fill:#497bad;fill-opacity:1;fill-rule:evenodd;stroke:none"
             id="path3581" />
        </g>
        <g
           id="g3583"
           transform="translate(243.5371,233.3242)">
          <path
             d="M 0,0 C -1.254,16.844 -7.848,30.475 -17.276,42.398 -32.971,62.233 -55.436,63.36 -80.539,69.206 L -111.648,48.8 C -77.366,19.003 -40.034,3.275 0,0"
             style="fill:#7e9091;fill-opacity:1;fill-rule:evenodd;stroke:none"
             id="path3585" />
        </g>
        <g
           id="g3587"
           transform="translate(243.5371,233.3242)">
          <path
             d="M 0,0 C -0.852,11.467 -4.182,21.446 -9.195,30.41 -21.73,38.355 -42.111,14.676 -30.589,5.09 -20.578,2.539 -10.382,0.851 0,0"
             style="fill:#f5ac00;fill-opacity:1;fill-rule:evenodd;stroke:none"
             id="path3589" />
        </g>
        <g
           id="g3591"
           transform="translate(279.1123,341.0205)">
          <path
             d="m 0,0 225.933,56.574 c 11.731,2.936 27.296,0.383 40.969,-6.722 l 12.815,-6.66 6.896,-6.119 c 3.352,-2.971 3.103,-6.228 -0.565,-7.412 L 122.102,-23.192 c -6.615,-2.134 -13.57,-2.899 -22.339,-2.455 l -79.372,4.018 c -8.036,0.409 -16.348,3.746 -21.684,8.712 l -0.774,0.72 C -7.538,-7.107 -6.615,-1.656 0,0"
             style="fill:#94a7a8;fill-opacity:1;fill-rule:evenodd;stroke:none"
             id="path3593" />
        </g>
        <g
           id="g3595"
           transform="translate(463.4082,343.4893)">
          <path
             d="m 0,0 4.318,-36.469 c 0.73,-6.166 -2.885,-11.849 -8.78,-13.802 l -8.867,-2.937 c -7.488,-2.482 -14.805,-1.987 -21.89,1.48 l -136.866,66.973 c -12.249,5.994 -19.35,17.992 -18.708,31.612 l 0.515,10.938 -9.614,55.035 c -1.279,7.329 -5.611,13.069 -12.309,16.312 l -7.641,3.697 -0.966,3.615 11.96,1.266 27.829,-7.796 c 8.1,-2.27 14.134,-7.567 17.435,-15.304 l 13.142,-30.812 c 4.391,-10.298 12.184,-17.448 22.817,-20.943 L -23.419,28.629 C -10.407,24.355 -1.608,13.597 0,0"
             style="fill:#c2d0d1;fill-opacity:1;fill-rule:evenodd;stroke:none"
             id="path3597" />
        </g>
        <g
           id="g3599"
           transform="translate(333.2559,247.8477)">
          <path
             d="m 0,0 c -1.251,16.843 -7.845,30.474 -17.276,42.395 -15.693,19.836 -38.157,20.963 -63.26,26.811 L -111.648,48.799 C -77.364,19.003 -40.031,3.272 0,0"
             style="fill:#7e9091;fill-opacity:1;fill-rule:evenodd;stroke:none"
             id="path3601" />
        </g>
        <g
           id="g3603"
           transform="translate(333.2559,247.8477)">
          <path
             d="M 0,0 C -0.85,11.467 -4.179,21.443 -9.194,30.407 -21.73,38.355 -42.109,14.676 -30.586,5.09 -20.575,2.537 -10.38,0.848 0,0"
             style="fill:#f5ac00;fill-opacity:1;fill-rule:evenodd;stroke:none"
             id="path3605" />
        </g>
        <g
           id="g3607"
           transform="translate(602.7656,282.9014)">
          <path
             d="m 0,0 c -14.864,38.474 -39.765,66.194 -69.996,88.202 -39.304,28.614 -85.21,36.993 -131.663,24.125 -25.932,-7.187 -49.659,-7.886 -75.968,-2.244 -21.673,4.648 -44.576,9.323 -59.404,13.827 -35.857,10.631 -47.257,-34.762 -2.816,-52.934 C -222.685,2.114 -109.581,-19.488 0,0"
             style="fill:#aec1c2;fill-opacity:1;fill-rule:evenodd;stroke:none"
             id="path3609" />
        </g>
        <g
           id="g3611"
           transform="translate(354.0166,309.4453)">
          <path
             d="M 0,0 C 84.98,-32.913 167.827,-40.935 248.749,-26.544 154.609,-23.512 72.234,-4.348 -0.658,27.823 Z"
             style="fill:#94a7a8;fill-opacity:1;fill-rule:evenodd;stroke:none"
             id="path3613" />
        </g>
        <g
           id="g3615"
           transform="translate(549.958,357.4082)">
          <path
             d="m 0,0 c -5.499,4.811 -11.24,9.363 -17.189,13.695 -31.581,22.993 -67.423,32.916 -104.389,29.253 -9.267,-5.896 -7.565,-20.674 2.822,-42.484 3.072,-6.454 8.549,-10.657 15.578,-11.952 13.933,-2.576 27.866,-5.151 41.8,-7.726 8.75,-1.616 17.022,1.073 23.148,7.525 C -23.668,3.642 -11.07,7.484 0,0"
             style="fill:#5fc9ed;fill-opacity:1;fill-rule:evenodd;stroke:none"
             id="path3617" />
        </g>
        <g
           id="g3619"
           transform="translate(542.752,363.459)">
          <path
             d="M 0,0 C -3.255,2.625 -6.586,5.17 -9.983,7.644 -23.735,17.657 -38.297,25.191 -53.407,30.203 L -118.95,13.791 c 1.448,-5.634 3.94,-12.115 7.4,-19.378 3.072,-6.454 8.549,-10.657 15.578,-11.952 l 26.423,-4.886 56.66,18.27 c 1.281,0.519 2.545,0.925 3.792,1.222 z"
             style="fill:#42b7de;fill-opacity:1;fill-rule:evenodd;stroke:none"
             id="path3621" />
        </g>
        <g
           id="g3623"
           transform="translate(431.5947,400.6387)">
          <path
             d="m 0,0 c -1.07,-0.082 -2.143,-0.177 -3.215,-0.282 l -2.051,-1.623 c -6.879,-6.735 -4.665,-20.832 4.873,-40.862 3.073,-6.454 8.549,-10.657 15.579,-11.952 13.932,-2.575 27.866,-5.15 41.799,-7.725 8.75,-1.617 17.023,1.073 23.149,7.524 2.276,2.397 4.504,4.513 6.686,6.35 L 35.604,-36.729 C 14.729,-30.859 11.668,-1.43 0,0"
             style="fill:#1f8fb5;fill-opacity:1;fill-rule:evenodd;stroke:none"
             id="path3625" />
        </g>
        <g
           id="g3627"
           transform="translate(602.7656,282.9014)">
          <path
             d="M 0,0 C -10.119,26.195 -24.893,47.4 -42.833,65.216 -77.391,76.065 -107.554,8.455 -74.161,-6.834 -49.261,-6.661 -24.54,-4.363 0,0"
             style="fill:#cc3300;fill-opacity:1;fill-rule:evenodd;stroke:none"
             id="path3629" />
        </g>
        <g
           id="g3631"
           transform="translate(602.7656,282.9014)">
          <path
             d="m 0,0 c -9.466,24.498 -23,44.635 -39.39,61.715 -5.587,-0.453 -11.021,-1.85 -16.075,-4.416 -11.952,-6.069 -33.342,-33.234 -6.524,-37.326 19.463,-2.971 29.632,-1.491 48.758,-11.088 3.788,-2.018 8.28,-5.364 13.061,-8.912 z"
             style="fill:#e83a00;fill-opacity:1;fill-rule:evenodd;stroke:none"
             id="path3633" />
        </g>
        <g
           id="g3635"
           transform="translate(515.6455,290.7109)">
          <path
             d="m 0,0 c 2.041,-6.303 6.194,-11.547 12.959,-14.644 24.9,0.173 49.621,2.471 74.161,6.834 C 56.893,-6.835 27.879,-4.195 0,0"
             style="fill:#a12800;fill-opacity:1;fill-rule:evenodd;stroke:none"
             id="path3637" />
        </g>
        <g
           id="g3639"
           transform="translate(413.502,324.9092)">
          <path
             d="m 0,0 4.478,-37.824 c 0.756,-6.398 -2.994,-12.291 -9.106,-14.319 l -9.199,-3.045 c -7.767,-2.574 -15.354,-2.06 -22.703,1.538 l -141.958,69.463 c -12.704,6.216 -20.069,18.662 -19.405,32.79 l 0.535,11.344 -9.97,57.08 c -1.327,7.602 -5.822,13.557 -12.769,16.918 l -7.923,3.835 -1.003,3.75 12.404,1.313 28.864,-8.086 c 8.402,-2.354 14.661,-7.848 18.084,-15.873 l 13.631,-31.96 c 4.555,-10.677 12.637,-18.095 23.666,-21.719 L -24.289,29.693 C -10.797,25.262 -1.67,14.104 0,0"
             style="fill:#c2d0d1;fill-opacity:1;fill-rule:evenodd;stroke:none"
             id="path3641" />
        </g>
        <g
           id="g3643"
           transform="translate(361.6611,295.1211)">
          <path
             d="m 0,0 -259.169,-43.061 c -13.457,-2.235 -26.215,3.434 -33.575,14.918 l -6.9,10.766 -1.71,9.185 c -0.832,4.464 1.978,8.785 6.394,9.839 l 197.393,47.042 c 7.965,1.899 15.169,1.916 23.142,0.054 L -2.263,31.892 C 5.045,30.186 10.295,24.516 11.437,17.1 l 0.166,-1.076 C 12.771,8.42 7.588,1.261 0,0"
             style="fill:#aec1c2;fill-opacity:1;fill-rule:evenodd;stroke:none"
             id="path3645" />
        </g>
        <g
           id="g3647"
           transform="translate(248.1113,351.0488)">
          <path
             d="m 0,0 -86.605,-14.387 c -4.497,-0.748 -8.76,1.148 -11.219,4.984 l -2.306,3.597 -0.572,3.071 c -0.278,1.49 0.66,2.936 2.137,3.287 l 65.96,15.72 c 2.663,0.634 5.071,0.64 7.734,0.016 L -0.756,10.657 C 1.685,10.088 3.441,8.194 3.822,5.716 L 3.876,5.354 C 4.268,2.816 2.534,0.422 0,0"
             style="fill:#aec1c2;fill-opacity:1;fill-rule:evenodd;stroke:none"
             id="path3649" />
        </g>
        <g
           id="g3651"
           transform="translate(361.6611,295.1211)">
          <path
             d="m 0,0 -259.169,-43.061 c -13.457,-2.235 -26.215,3.434 -33.575,14.918 l -4.675,7.296 c 0.579,-0.405 1.169,-0.796 1.772,-1.175 10.385,-6.525 30.511,-6.361 51.242,-4.048 71.293,7.947 144.219,25.967 216.012,35.553 17.656,2.359 34.34,5.043 35.548,16.87 2.228,-2.515 3.732,-5.68 4.282,-9.253 l 0.166,-1.076 C 12.771,8.42 7.588,1.261 0,0"
             style="fill:#97acad;fill-opacity:1;fill-rule:evenodd;stroke:none"
             id="path3653" />
        </g>
        <g
           id="g3655"
           transform="translate(391.9727,327.2529)">
          <path
             d="m 0,0 7.492,2.804 c 4.337,1.622 8.386,-0.91 8.996,-5.627 l 4.318,-33.386 c 0.609,-4.719 -2.443,-9.907 -6.783,-11.529 l -7.49,-2.802 c -4.338,-1.624 -8.388,0.909 -8.998,5.627 L -6.78,-11.528 C -7.391,-6.811 -4.34,-1.622 0,0"
             style="fill:#7e9091;fill-opacity:1;fill-rule:evenodd;stroke:none"
             id="path3657" />
        </g>
      </g>
    </g>
  </g>
</svg>
