<?xml version="1.0" encoding="UTF-8" standalone="no"?>
<!-- Created with Inkscape (http://www.inkscape.org/) -->

<svg
   version="1.1"
   id="svg1"
   width="800"
   height="800"
   viewBox="0 0 800 800"
   sodipodi:docname="military-fighter-aircraft.svg"
   inkscape:version="1.3.2 (091e20e, 2023-11-25, custom)"
   xmlns:inkscape="http://www.inkscape.org/namespaces/inkscape"
   xmlns:sodipodi="http://sodipodi.sourceforge.net/DTD/sodipodi-0.dtd"
   xmlns="http://www.w3.org/2000/svg"
   xmlns:svg="http://www.w3.org/2000/svg">
  <defs
     id="defs1">
    <clipPath
       clipPathUnits="userSpaceOnUse"
       id="clipPath5">
      <path
         d="M 0,600 H 600 V 0 H 0 Z"
         transform="translate(-113.3394,-225.18261)"
         id="path5" />
    </clipPath>
    <clipPath
       clipPathUnits="userSpaceOnUse"
       id="clipPath7">
      <path
         d="M 0,600 H 600 V 0 H 0 Z"
         transform="translate(-116.9785,-246.76561)"
         id="path7" />
    </clipPath>
    <clipPath
       clipPathUnits="userSpaceOnUse"
       id="clipPath9">
      <path
         d="M 0,600 H 600 V 0 H 0 Z"
         transform="translate(-232.94821,-365.41501)"
         id="path9" />
    </clipPath>
    <clipPath
       clipPathUnits="userSpaceOnUse"
       id="clipPath11">
      <path
         d="M 0,600 H 600 V 0 H 0 Z"
         transform="translate(-137.2251,-274.37211)"
         id="path11" />
    </clipPath>
    <clipPath
       clipPathUnits="userSpaceOnUse"
       id="clipPath13">
      <path
         d="M 0,600 H 600 V 0 H 0 Z"
         transform="translate(-577.67581,-526.05321)"
         id="path13" />
    </clipPath>
    <clipPath
       clipPathUnits="userSpaceOnUse"
       id="clipPath15">
      <path
         d="M 0,600 H 600 V 0 H 0 Z"
         transform="translate(-312.06251,-296.7334)"
         id="path15" />
    </clipPath>
    <clipPath
       clipPathUnits="userSpaceOnUse"
       id="clipPath17">
      <path
         d="M 0,600 H 600 V 0 H 0 Z"
         transform="translate(-223.04101,-272.88871)"
         id="path17" />
    </clipPath>
    <clipPath
       clipPathUnits="userSpaceOnUse"
       id="clipPath19">
      <path
         d="M 0,600 H 600 V 0 H 0 Z"
         transform="translate(-312.06641,-296.7334)"
         id="path19" />
    </clipPath>
    <clipPath
       clipPathUnits="userSpaceOnUse"
       id="clipPath21">
      <path
         d="M 0,600 H 600 V 0 H 0 Z"
         transform="translate(-473.67581,-501.55222)"
         id="path21" />
    </clipPath>
    <clipPath
       clipPathUnits="userSpaceOnUse"
       id="clipPath23">
      <path
         d="M 0,600 H 600 V 0 H 0 Z"
         transform="translate(-473.67581,-501.55222)"
         id="path23" />
    </clipPath>
    <clipPath
       clipPathUnits="userSpaceOnUse"
       id="clipPath25">
      <path
         d="M 0,600 H 600 V 0 H 0 Z"
         transform="translate(-391.27051,-482.98931)"
         id="path25" />
    </clipPath>
    <clipPath
       clipPathUnits="userSpaceOnUse"
       id="clipPath27">
      <path
         d="M 0,600 H 600 V 0 H 0 Z"
         transform="translate(-401.76561,-457.39651)"
         id="path27" />
    </clipPath>
    <clipPath
       clipPathUnits="userSpaceOnUse"
       id="clipPath29">
      <path
         d="M 0,600 H 600 V 0 H 0 Z"
         transform="translate(-445.25101,-400.19431)"
         id="path29" />
    </clipPath>
    <clipPath
       clipPathUnits="userSpaceOnUse"
       id="clipPath31">
      <path
         d="M 0,600 H 600 V 0 H 0 Z"
         transform="translate(-385.10061,-376.37891)"
         id="path31" />
    </clipPath>
    <clipPath
       clipPathUnits="userSpaceOnUse"
       id="clipPath33">
      <path
         d="M 0,600 H 600 V 0 H 0 Z"
         transform="translate(-445.25101,-400.19431)"
         id="path33" />
    </clipPath>
    <clipPath
       clipPathUnits="userSpaceOnUse"
       id="clipPath35">
      <path
         d="M 0,600 H 600 V 0 H 0 Z"
         transform="translate(-396.83791,-360.07031)"
         id="path35" />
    </clipPath>
    <clipPath
       clipPathUnits="userSpaceOnUse"
       id="clipPath37">
      <path
         d="M 0,600 H 600 V 0 H 0 Z"
         transform="translate(-577.67581,-526.05321)"
         id="path37" />
    </clipPath>
    <clipPath
       clipPathUnits="userSpaceOnUse"
       id="clipPath39">
      <path
         d="M 0,600 H 600 V 0 H 0 Z"
         transform="translate(-537.72071,-492.82961)"
         id="path39" />
    </clipPath>
    <clipPath
       clipPathUnits="userSpaceOnUse"
       id="clipPath41">
      <path
         d="M 0,600 H 600 V 0 H 0 Z"
         transform="translate(-404.14451,-420.21001)"
         id="path41" />
    </clipPath>
    <clipPath
       clipPathUnits="userSpaceOnUse"
       id="clipPath43">
      <path
         d="M 0,600 H 600 V 0 H 0 Z"
         transform="translate(-217.59961,-359.69041)"
         id="path43" />
    </clipPath>
    <clipPath
       clipPathUnits="userSpaceOnUse"
       id="clipPath45">
      <path
         d="M 0,600 H 600 V 0 H 0 Z"
         transform="translate(-290.5039,-378.44631)"
         id="path45" />
    </clipPath>
    <clipPath
       clipPathUnits="userSpaceOnUse"
       id="clipPath47">
      <path
         d="M 0,600 H 600 V 0 H 0 Z"
         transform="translate(-404.14451,-420.21001)"
         id="path47" />
    </clipPath>
    <clipPath
       clipPathUnits="userSpaceOnUse"
       id="clipPath49">
      <path
         d="M 0,600 H 600 V 0 H 0 Z"
         transform="translate(-425.49221,-462.43751)"
         id="path49" />
    </clipPath>
  </defs>
  <sodipodi:namedview
     id="namedview1"
     pagecolor="#ffffff"
     bordercolor="#000000"
     borderopacity="0.25"
     inkscape:showpageshadow="2"
     inkscape:pageopacity="0.0"
     inkscape:pagecheckerboard="0"
     inkscape:deskcolor="#d1d1d1"
     inkscape:zoom="0.7625"
     inkscape:cx="399.34426"
     inkscape:cy="400"
     inkscape:window-width="1440"
     inkscape:window-height="830"
     inkscape:window-x="-6"
     inkscape:window-y="-6"
     inkscape:window-maximized="1"
     inkscape:current-layer="g1">
    <inkscape:page
       x="0"
       y="0"
       inkscape:label="1"
       id="page1"
       width="800"
       height="800"
       margin="217.612 29.765333 96.610664 37.313202"
       bleed="0" />
  </sodipodi:namedview>
  <g
     id="g1"
     inkscape:groupmode="layer"
     inkscape:label="1">
    <g
       id="group-MC0">
      <path
         id="path2"
         d="m 0,0 -54.609,-41.421 16.62,7.363 -49.117,-42.836 24.452,13.339 -37.431,-28.416 44.703,26.243 -11.516,-11.803 53.108,32.116 -11.396,-9.466 38.752,20.081 z"
         style="fill:#f39c0f;fill-opacity:1;fill-rule:evenodd;stroke:none"
         transform="matrix(1.3333333,0,0,-1.3333333,177.20053,459.7604)" />
      <path
         id="path3"
         d="m 0,0 -28.6,-21.365 5.429,1.542 -21.469,-21.01 12.412,7.3 -19.736,-19.548 29.502,15.241 -9.229,-8.452 0.253,0.177 44.372,21.883 z"
         style="fill:#fbca07;fill-opacity:1;fill-rule:evenodd;stroke:none"
         transform="matrix(1.3333333,0,0,-1.3333333,176.2012,465.9636)" />
      <path
         id="path4"
         d="M 0,0 7.317,4.116 -11.751,-12.091 5.562,-2.053 -0.275,-8.196 24.035,5.791 c 0.284,0.729 -4.997,7.444 -5.773,8.519 z"
         style="fill:#faf462;fill-opacity:1;fill-rule:evenodd;stroke:none"
         transform="matrix(1.3333333,0,0,-1.3333333,151.1192,499.75653)"
         clip-path="url(#clipPath5)" />
      <path
         id="path6"
         d="M 0,0 78.329,63.969 109.823,18.909 22.835,-32.669 Z"
         style="fill:#9c9aa2;fill-opacity:1;fill-rule:evenodd;stroke:none"
         transform="matrix(1.3333333,0,0,-1.3333333,155.97133,470.9792)"
         clip-path="url(#clipPath7)" />
      <path
         id="path8"
         d="m 0,0 -76.276,-64.743 -52.042,57.42 19.562,29.439 z"
         style="fill:#9c9aa2;fill-opacity:1;fill-rule:evenodd;stroke:none"
         transform="matrix(1.3333333,0,0,-1.3333333,310.5976,312.78)"
         clip-path="url(#clipPath9)" />
      <path
         id="path10"
         d="M 0,0 121.675,99.369 170.599,29.372 35.47,-50.749 Z"
         style="fill:#7f7e86;fill-opacity:1;fill-rule:evenodd;stroke:none"
         transform="matrix(1.3333333,0,0,-1.3333333,182.9668,434.17053)"
         clip-path="url(#clipPath11)" />
      <path
         id="path12"
         d="m 0,0 c -41.354,5.123 -73.811,-3.399 -96.151,-19.015 l -7.849,-5.486 -18.055,-1.564 c -31.052,-2.689 -57.104,-11.249 -83.703,-27.498 l -32.649,-19.946 -212.278,-163.998 40.305,-9.613 c 59.97,-14.306 117.116,-3.437 167.651,31.883 l 159.615,111.561 C -33.837,-69.234 -11.263,-55.214 0,0"
         style="fill:#9c9aa2;fill-opacity:1;fill-rule:evenodd;stroke:none"
         transform="matrix(1.3333333,0,0,-1.3333333,770.2344,98.595733)"
         clip-path="url(#clipPath13)" />
      <path
         id="path14"
         d="M 0,0 C 7.765,4.159 15.397,8.85 22.884,14.083 L 92.012,62.398 94.519,130.385 -28.955,12.682 -29.35,10.452 Z"
         style="fill:#88868f;fill-opacity:1;fill-rule:evenodd;stroke:none"
         transform="matrix(1.3333333,0,0,-1.3333333,416.08333,404.35547)"
         clip-path="url(#clipPath15)" />
      <path
         id="path16"
         d="m 0,0 c 39.592,1.021 77.3,13.739 111.905,37.928 l 159.616,111.56 c 47.361,33.103 70.053,47.348 81.745,97.423 z"
         style="fill:#92919c;fill-opacity:1;fill-rule:evenodd;stroke:none"
         transform="matrix(1.3333333,0,0,-1.3333333,297.388,436.1484)"
         clip-path="url(#clipPath17)" />
      <path
         id="path18"
         d="M 0,0 C 7.765,4.157 15.395,8.85 22.88,14.083 L 92.008,62.398 93.533,103.753 -7.503,33.137 -28.959,12.682 -29.354,10.452 Z"
         style="fill:#7f7e86;fill-opacity:1;fill-rule:evenodd;stroke:none"
         transform="matrix(1.3333333,0,0,-1.3333333,416.08853,404.35547)"
         clip-path="url(#clipPath19)" />
      <path
         id="path20"
         d="m 0,0 -18.055,-1.564 c -31.052,-2.689 -57.104,-11.249 -83.703,-27.498 l -32.649,-19.946 3.689,-2.56 c 17.5,-12.145 39.614,-12.108 57.073,0.095 z"
         style="fill:#8ebae7;fill-opacity:1;fill-rule:evenodd;stroke:none"
         transform="matrix(1.3333333,0,0,-1.3333333,631.56773,131.26373)"
         clip-path="url(#clipPath21)" />
      <path
         id="path22"
         d="m 0,0 -0.129,-0.011 -68.128,-42.015 c -19.679,-12.135 -41.402,-14.819 -63.441,-7.841 l -2.709,0.859 3.689,-2.56 c 17.5,-12.145 39.614,-12.108 57.073,0.095 z"
         style="fill:#6799d7;fill-opacity:1;fill-rule:evenodd;stroke:none"
         transform="matrix(1.3333333,0,0,-1.3333333,631.56773,131.26373)"
         clip-path="url(#clipPath23)" />
      <path
         id="path24"
         d="m 0,0 c -5.669,-2.685 -11.301,-5.696 -16.95,-9.053 12.022,-2.722 22.051,-8.74 28.588,-18.094 0.593,-0.845 1.145,-1.708 1.668,-2.587 L 43.874,-8.369 C 32.47,-0.75 16.969,2.017 0,0"
         style="fill:#afd3f1;fill-opacity:1;fill-rule:evenodd;stroke:none"
         transform="matrix(1.3333333,0,0,-1.3333333,521.694,156.01427)"
         clip-path="url(#clipPath25)" />
      <path
         id="path26"
         d="m 0,0 c 0.393,-0.508 0.774,-1.025 1.143,-1.554 0.59,-0.845 1.145,-1.708 1.668,-2.587 l 30.568,21.365 c -0.851,0.568 -1.724,1.109 -2.618,1.624 L 3.653,2.13 C 2.443,1.383 1.225,0.674 0,0"
         style="fill:#8ebae7;fill-opacity:1;fill-rule:evenodd;stroke:none"
         transform="matrix(1.3333333,0,0,-1.3333333,535.68747,190.138)"
         clip-path="url(#clipPath27)" />
      <path
         id="path28"
         d="m 0,0 c -17.869,-0.333 -33.055,-4.878 -49.505,-16.376 l -75.644,-52.87 4.216,-15.278 -5.474,-22.051 94.017,65.713 C -15.941,-29.366 -6.455,-16.664 0,0"
         style="fill:#626169;fill-opacity:1;fill-rule:evenodd;stroke:none"
         transform="matrix(1.3333333,0,0,-1.3333333,593.668,266.4076)"
         clip-path="url(#clipPath29)" />
      <path
         id="path30"
         d="m 0,0 -64.998,-45.429 4.214,-15.28 -5.473,-22.051 66.31,46.348 C -13.382,-39.861 -14.683,-13.62 0,0"
         style="fill:#46454b;fill-opacity:1;fill-rule:evenodd;stroke:none"
         transform="matrix(1.3333333,0,0,-1.3333333,513.46747,298.16147)"
         clip-path="url(#clipPath31)" />
      <path
         id="path32"
         d="m 0,0 c -17.869,-0.333 -33.057,-4.878 -49.505,-16.376 l -5.207,-3.639 c -7.354,-5.139 9.761,-29.627 17.115,-24.488 l 5.207,3.641 C -15.941,-29.366 -6.455,-16.664 0,0"
         style="fill:#fab40a;fill-opacity:1;fill-rule:evenodd;stroke:none"
         transform="matrix(1.3333333,0,0,-1.3333333,593.668,266.4076)"
         clip-path="url(#clipPath33)" />
      <path
         id="path34"
         d="m 0,0 c 3.754,-3.969 8,-6.347 10.816,-4.379 l 5.207,3.641 C 32.474,10.758 41.958,23.46 48.413,40.124 37.004,26.036 21.114,12.623 0,0"
         style="fill:#f39c0f;fill-opacity:1;fill-rule:evenodd;stroke:none"
         transform="matrix(1.3333333,0,0,-1.3333333,529.1172,319.90627)"
         clip-path="url(#clipPath35)" />
      <path
         id="path36"
         d="m 0,0 c -21.268,2.634 -40.182,1.66 -56.576,-2.032 2.435,-8.494 6.593,-17.29 12.433,-25.649 6.94,-9.927 15.274,-17.834 23.861,-23.238 C -10.983,-37.975 -4.563,-22.369 0,0"
         style="fill:#fbca07;fill-opacity:1;fill-rule:evenodd;stroke:none"
         transform="matrix(1.3333333,0,0,-1.3333333,770.2344,98.595733)"
         clip-path="url(#clipPath37)" />
      <path
         id="path38"
         d="M 0,0 C 5.995,-7.357 12.751,-13.338 19.673,-17.695 28.972,-4.751 35.392,10.855 39.955,33.224 29.07,20.692 15.736,9.627 0,0"
         style="fill:#f39c0f;fill-opacity:1;fill-rule:evenodd;stroke:none"
         transform="matrix(1.3333333,0,0,-1.3333333,716.96093,142.89387)"
         clip-path="url(#clipPath39)" />
      <path
         id="path40"
         d="m 0,0 -98.755,-159.616 c -6.071,-9.813 -14.447,-17.119 -25.341,-22.108 -8.134,-3.721 -15.947,-6.638 -23.389,-8.617 -5.005,-1.331 -13.399,-0.23 -11.413,6.02 l 36.164,113.836 c 3.102,9.764 10.147,17.08 18.967,24.269 31.2,25.425 62.872,46.903 95.124,63.544 C 1.892,22.763 5.568,9 0,0"
         style="fill:#bcb8c2;fill-opacity:1;fill-rule:evenodd;stroke:none"
         transform="matrix(1.3333333,0,0,-1.3333333,538.85933,239.72)"
         clip-path="url(#clipPath41)" />
      <path
         id="path42"
         d="m 0,0 -81.415,-73.338 -108.2,18.171 17.548,28.031 z"
         style="fill:#7f7e86;fill-opacity:1;fill-rule:evenodd;stroke:none"
         transform="matrix(1.3333333,0,0,-1.3333333,290.1328,320.4128)"
         clip-path="url(#clipPath43)" />
      <path
         id="path44"
         d="m 0,0 -121.854,-85.169 c 30.793,31.388 69.093,64.815 109.24,96.276 z M 59.664,41.702 23.095,16.142 8.896,27.645 c 10.686,8.057 21.43,15.931 32.128,23.545 6.213,-3.162 12.427,-6.325 18.64,-9.488"
         style="fill:#afabb3;fill-opacity:1;fill-rule:evenodd;stroke:none"
         transform="matrix(1.3333333,0,0,-1.3333333,387.33853,295.40493)"
         clip-path="url(#clipPath45)" />
      <path
         id="path46"
         d="m 0,0 -98.755,-159.616 c -6.071,-9.813 -14.447,-17.119 -25.341,-22.108 -8.133,-3.721 -15.947,-6.638 -23.389,-8.617 -5.005,-1.331 -13.399,-0.23 -11.413,6.02 l 2.082,6.552 c 2.099,-0.324 4.445,-0.167 6.316,0.333 7.442,1.977 15.256,4.892 23.39,8.618 10.892,4.986 19.27,12.293 25.339,22.104 L -3.016,12.903 c 0.92,1.484 1.584,3.095 2.01,4.731 C 3.271,14.833 3.876,6.265 0,0"
         style="fill:#b0acb3;fill-opacity:1;fill-rule:evenodd;stroke:none"
         transform="matrix(1.3333333,0,0,-1.3333333,538.85933,239.72)"
         clip-path="url(#clipPath47)" />
      <path
         id="path48"
         d="M 0,0 47.136,32.944 C 40.421,28.251 38.694,19.983 42.999,13.141 l 1.574,-2.502 -47.134,-32.945 -1.575,2.502 C -8.44,-12.961 -6.714,-4.693 0,0"
         style="fill:#afabb3;fill-opacity:1;fill-rule:evenodd;stroke:none"
         transform="matrix(1.3333333,0,0,-1.3333333,567.32293,183.41667)"
         clip-path="url(#clipPath49)" />
    </g>
  </g>
</svg>
