<?xml version="1.0" encoding="iso-8859-1"?>
<!-- Uploaded to: SVG Repo, www.svgrepo.com, Generator: SVG Repo Mixer Tools -->
<svg version="1.1" id="Layer_1" xmlns="http://www.w3.org/2000/svg" xmlns:xlink="http://www.w3.org/1999/xlink" 
	 viewBox="0 0 512 512" xml:space="preserve">
<g>
	<rect x="10.449" y="62.684" style="fill:#0B3CA0;" width="67.103" height="229.878"/>
	<rect x="199.847" y="62.684" style="fill:#0B3CA0;" width="67.103" height="229.878"/>
	<rect x="378.796" y="62.684" style="fill:#0B3CA0;" width="69.433" height="229.878"/>
	<rect x="448.24" y="102.244" style="fill:#0B3CA0;" width="53.311" height="150.747"/>
</g>
<g>
	<rect x="77.552" y="62.684" style="fill:#1D66DB;" width="122.295" height="229.878"/>
	<rect x="266.961" y="62.684" style="fill:#1D66DB;" width="111.846" height="229.878"/>
</g>
<polyline style="fill:#0B3CA0;" points="378.841,449.317 378.841,292.561 413.323,292.561 413.323,449.317 378.841,449.317 "/>
<path d="M501.551,91.799h-42.863V62.684c0-5.77-4.678-10.449-10.449-10.449H10.449C4.678,52.235,0,56.914,0,62.684v229.878
	c0,5.77,4.678,10.449,10.449,10.449h357.943v88.24l-47.617,47.617H155.26v-5.224c0-5.77-4.678-10.449-10.449-10.449
	s-10.449,4.679-10.449,10.449v15.673c0,5.77,4.678,10.449,10.449,10.449h233.951c0.014,0,0.026-0.002,0.04-0.002
	s0.026,0.002,0.04,0.002h34.482c5.771,0,10.449-4.679,10.449-10.449V303.01h24.468c5.771,0,10.449-4.679,10.449-10.449v-29.116
	h42.862c5.771,0,10.449-4.678,10.449-10.449V102.248C512,96.477,507.322,91.799,501.551,91.799z M20.898,73.133h46.21v208.98h-46.21
	V73.133z M88.005,73.133h101.396v208.98H88.005V73.133z M210.299,73.133h46.21v208.98h-46.21V73.133z M277.406,73.133h90.947v208.98
	h-90.947V73.133z M368.392,420.806v18.062H350.33L368.392,420.806z M402.874,438.868H389.29V303.01h13.584V438.868z M437.79,282.113
	h-24.468h-24.071V73.133h48.54v29.114v150.748L437.79,282.113L437.79,282.113z M491.102,242.547h-32.414V112.697h32.414V242.547z"/>
<path d="M152.876,86.507h-28.345c-5.771,0-10.449,4.679-10.449,10.449c0,5.77,4.678,10.449,10.449,10.449h28.345
	c5.771,0,10.449-4.679,10.449-10.449C163.325,91.186,158.647,86.507,152.876,86.507z"/>
<path d="M152.876,140.284h-28.345c-5.771,0-10.449,4.678-10.449,10.449c0,5.77,4.678,10.449,10.449,10.449h28.345
	c5.771,0,10.449-4.679,10.449-10.449C163.325,144.962,158.647,140.284,152.876,140.284z"/>
<path d="M152.876,194.062h-28.345c-5.771,0-10.449,4.678-10.449,10.449c0,5.77,4.678,10.449,10.449,10.449h28.345
	c5.771,0,10.449-4.679,10.449-10.449C163.325,198.74,158.647,194.062,152.876,194.062z"/>
<path d="M152.876,247.839h-28.345c-5.771,0-10.449,4.68-10.449,10.449c0,5.77,4.678,10.449,10.449,10.449h28.345
	c5.771,0,10.449-4.679,10.449-10.449C163.325,252.519,158.647,247.839,152.876,247.839z"/>
<path d="M337.052,86.507h-28.345c-5.771,0-10.449,4.679-10.449,10.449c0,5.77,4.678,10.449,10.449,10.449h28.345
	c5.771,0,10.449-4.679,10.449-10.449C347.501,91.186,342.823,86.507,337.052,86.507z"/>
<path d="M337.052,140.284h-28.345c-5.771,0-10.449,4.678-10.449,10.449c0,5.77,4.678,10.449,10.449,10.449h28.345
	c5.771,0,10.449-4.679,10.449-10.449C347.501,144.962,342.823,140.284,337.052,140.284z"/>
<path d="M337.052,194.062h-28.345c-5.771,0-10.449,4.678-10.449,10.449c0,5.77,4.678,10.449,10.449,10.449h28.345
	c5.771,0,10.449-4.679,10.449-10.449C347.501,198.74,342.823,194.062,337.052,194.062z"/>
<path d="M337.052,247.839h-28.345c-5.771,0-10.449,4.68-10.449,10.449c0,5.77,4.678,10.449,10.449,10.449h28.345
	c5.771,0,10.449-4.679,10.449-10.449C347.501,252.519,342.823,247.839,337.052,247.839z"/>
</svg>