<?xml version="1.0" encoding="iso-8859-1"?>
<!-- Uploaded to: SVG Repo, www.svgrepo.com, Generator: SVG Repo Mixer Tools -->
<svg version="1.1" id="Layer_1" xmlns="http://www.w3.org/2000/svg" xmlns:xlink="http://www.w3.org/1999/xlink" 
	 viewBox="0 0 512 512" xml:space="preserve">
<path style="fill:#547475;" d="M153.32,512h-35.848c-13.576,0-24.584-11.008-24.584-24.584V24.584
	C92.888,11.007,103.896,0,117.472,0h277.057c13.576,0,24.584,11.007,24.584,24.584v462.832c0,13.576-11.008,24.584-24.584,24.584
	H177.803"/>
<path style="opacity:0.15;fill:#231F20;enable-background:new    ;" d="M109.737,487.416V24.584C109.737,11.007,120.744,0,134.321,0
	h-16.849c-13.576,0-24.584,11.007-24.584,24.584v462.832c0,13.576,11.008,24.584,24.584,24.584h16.849
	C120.744,512,109.737,500.992,109.737,487.416z"/>
<path style="fill:#53CAF9;" d="M381.312,275.021c0,7.376-5.98,13.357-13.357,13.357H144.045c-7.376,0-13.357-5.98-13.357-13.357
	V51.311c0-7.376,5.98-13.357,13.357-13.357h223.911c7.376,0,13.357,5.98,13.357,13.357V275.021z"/>
<g>
	<circle style="fill:#EFBA00;" cx="360.481" cy="361.561" r="20.822"/>
	<circle style="fill:#EFBA00;" cx="320.957" cy="422.244" r="20.822"/>
</g>
<path style="fill:#F74848;" d="M206.182,378.753h-18.92v-18.919c0-4.303-3.488-7.791-7.791-7.791H165.19
	c-4.303,0-7.791,3.488-7.791,7.791v18.919h-18.92c-4.303,0-7.791,3.488-7.791,7.791v14.281c0,4.303,3.488,7.791,7.791,7.791h18.92
	v18.919c0,4.303,3.488,7.791,7.791,7.791h14.281c4.303,0,7.791-3.488,7.791-7.791v-18.919h18.92c4.303,0,7.791-3.488,7.791-7.791
	v-14.281C213.974,382.241,210.485,378.753,206.182,378.753z"/>
<g>
	<path style="fill:#8AACAD;" d="M210.463,488.909c-4.61,0-8.348-3.725-8.348-8.336v-0.025c0-4.61,3.738-8.348,8.348-8.348
		c4.61,0,8.348,3.738,8.348,8.348C218.811,485.16,215.072,488.909,210.463,488.909z"/>
	<path style="fill:#8AACAD;" d="M301.537,488.909c-4.61,0-8.348-3.725-8.348-8.336v-0.025c0-4.61,3.738-8.348,8.348-8.348
		s8.348,3.738,8.348,8.348C309.885,485.16,306.147,488.909,301.537,488.909z"/>
	<path style="fill:#8AACAD;" d="M271.179,488.909c-4.61,0-8.348-3.725-8.348-8.336v-0.025c0-4.61,3.738-8.348,8.348-8.348
		s8.348,3.738,8.348,8.348C279.526,485.16,275.788,488.909,271.179,488.909z"/>
	<path style="fill:#8AACAD;" d="M240.819,488.909c-4.61,0-8.348-3.725-8.348-8.336v-0.025c0-4.61,3.738-8.348,8.348-8.348
		s8.348,3.738,8.348,8.348C249.167,485.16,245.429,488.909,240.819,488.909z"/>
	<path style="fill:#8AACAD;" d="M302.376,325.195h-92.752c-4.61,0-8.348-3.738-8.348-8.348c0-4.611,3.738-8.348,8.348-8.348h92.752
		c4.61,0,8.348,3.736,8.348,8.348C310.724,321.457,306.986,325.195,302.376,325.195z"/>
</g>
<path style="opacity:0.1;fill:#231F20;enable-background:new    ;" d="M219.085,316.847c0-4.611,3.738-8.348,8.348-8.348h-17.809
	c-4.61,0-8.348,3.736-8.348,8.348c0,4.61,3.738,8.348,8.348,8.348h17.809C222.822,325.195,219.085,321.457,219.085,316.847z"/>
<g>
	<path style="fill:#E5E541;" d="M260.093,128.394c0,0.542-0.44,0.982-0.982,0.982H230.33c-0.543,0-0.983-0.44-0.983-0.982V99.613
		c0-0.542,0.44-0.983,0.983-0.983h28.781c0.542,0,0.982,0.441,0.982,0.983V128.394z"/>
	<path style="fill:#E5E541;" d="M351.186,287.4c0,0.542-0.44,0.982-0.983,0.982h-28.781c-0.542,0-0.982-0.44-0.982-0.982v-28.781
		c0-0.542,0.44-0.983,0.982-0.983h28.781c0.543,0,0.983,0.441,0.983,0.983V287.4z"/>
	<path style="fill:#E5E541;" d="M290.838,194.613c0,0.728-0.44,1.318-0.981,1.318h-28.782c-0.543,0-0.983-0.589-0.983-1.318v-38.615
		c0-0.728,0.44-1.319,0.983-1.319h28.782c0.541,0,0.981,0.59,0.981,1.319L290.838,194.613L290.838,194.613z"/>
	<path style="fill:#E5E541;" d="M381.312,257.86c0,0.569-0.44,1.028-0.982,1.028h-28.781c-0.543,0-0.983-0.46-0.983-1.028v-30.152
		c0-0.568,0.44-1.03,0.983-1.03h28.781c0.542,0,0.982,0.462,0.982,1.03V257.86z"/>
	<path style="fill:#E5E541;" d="M130.688,275.021c0,7.376,5.98,13.357,13.357,13.357h17.389v-30.954h-30.746
		C130.688,257.424,130.688,275.021,130.688,275.021z"/>
</g>
<rect x="161.436" y="257.425" style="fill:#EBF25F;" width="34.04" height="30.953"/>
<rect x="161.436" y="224.801" style="fill:#E5E541;" width="30.746" height="32.623"/>
<g>
	<path style="fill:#EBF25F;" d="M290.838,159.14c0,0.542-0.44,0.982-0.981,0.982h-28.782c-0.543,0-0.983-0.44-0.983-0.982v-28.781
		c0-0.542,0.44-0.983,0.983-0.983h28.782c0.541,0,0.981,0.441,0.981,0.983L290.838,159.14L290.838,159.14z"/>
	<path style="fill:#EBF25F;" d="M290.838,220.631c0,0.542-0.44,0.982-0.981,0.982h-28.782c-0.543,0-0.983-0.44-0.983-0.982V191.85
		c0-0.542,0.44-0.983,0.983-0.983h28.782c0.541,0,0.981,0.44,0.981,0.983L290.838,220.631L290.838,220.631z"/>
	<path style="fill:#EBF25F;" d="M350.566,288.377h17.389c7.376,0,13.357-5.98,13.357-13.357v-17.596h-30.746V288.377z"/>
	<path style="fill:#EBF25F;" d="M192.179,225.695c0,0.542-0.44,0.982-0.982,0.982h-28.781c-0.543,0-0.983-0.44-0.983-0.982v-28.781
		c0-0.542,0.439-0.983,0.983-0.983h28.781c0.542,0,0.982,0.44,0.982,0.983V225.695z"/>
</g>
<path style="fill:#E5E541;" d="M222.925,287.189c0,0.541-0.44,0.981-0.982,0.981h-28.781c-0.543,0-0.983-0.44-0.983-0.981v-28.781
	c0-0.542,0.44-0.983,0.983-0.983h28.781c0.542,0,0.982,0.44,0.982,0.983V287.189z"/>
<path style="opacity:0.15;fill:#231F20;enable-background:new    ;" d="M148.497,275.021V51.311c0-7.376,5.98-13.357,13.357-13.357
	h-17.809c-7.376,0-13.357,5.98-13.357,13.357v223.709c0,7.376,5.98,13.357,13.357,13.357h17.809
	C154.477,288.377,148.497,282.397,148.497,275.021z"/>
</svg>